<svg id="SvgjsSvg1001" width="256" height="256" xmlns="http://www.w3.org/2000/svg" version="1.1" xmlns:xlink="http://www.w3.org/1999/xlink" xmlns:svgjs="http://svgjs.com/svgjs">
<defs id="SvgjsDefs1002"></defs>
<g id="SvgjsG1008">
<svg xmlns="http://www.w3.org/2000/svg" viewBox="0 0 64 64" width="256" height="256">
<path fill="#1cd9c4" d="m15.387 28.376-.978-.212a17.914 17.914 0 0 1 1.753-4.727l.879.477a16.927 16.927 0 0 0-1.654 4.462zm-1.15 6.556a18.282 18.282 0 0 1-.111-5.075l.993.118a17.266 17.266 0 0 0 .106 4.796l-.988.161zm3.265 7.737a17.848 17.848 0 0 1-2.893-6.01l.966-.258a16.87 16.87 0 0 0 2.731 5.674l-.804.594zm5.827 5.108a17.997 17.997 0 0 1-4.792-3.83l.748-.664a17.01 17.01 0 0 0 4.527 3.618l-.483.876zM32 50c-2.353 0-4.641-.447-6.8-1.329l.378-.926A16.895 16.895 0 0 0 32 49a16.98 16.98 0 0 0 12.968-6.008l.763.646A17.975 17.975 0 0 1 32 50zm14.971-8.003-.831-.556A16.922 16.922 0 0 0 49 32c0-2.525-.541-4.956-1.606-7.223l.905-.426A17.848 17.848 0 0 1 50 32c0 3.578-1.047 7.035-3.029 9.997zm-.643-19.149a17.018 17.018 0 0 0-4.509-4.728l.578-.815a18 18 0 0 1 4.774 5.004l-.843.539zm-6.069-5.71a16.941 16.941 0 0 0-3.858-1.563l.258-.966c1.422.38 2.797.937 4.086 1.654l-.486.875zM28.02 15.469l-.233-.973a18.248 18.248 0 0 1 7.106-.265l-.159.987a17.25 17.25 0 0 0-6.714.251zm-5.734 2.578-.572-.82a17.959 17.959 0 0 1 4.416-2.248l.326.945a16.959 16.959 0 0 0-4.17 2.123zm-4.251 4.256-.821-.571a18.11 18.11 0 0 1 2.954-3.296l.657.753a17.099 17.099 0 0 0-2.79 3.114zM33.5 43c-1.378 0-2.5-1.122-2.5-2.5s1.122-2.5 2.5-2.5 2.5 1.122 2.5 2.5-1.122 2.5-2.5 2.5zm0-4c-.827 0-1.5.673-1.5 1.5s.673 1.5 1.5 1.5 1.5-.673 1.5-1.5-.673-1.5-1.5-1.5zm-9-13.5c-1.378 0-2.5-1.122-2.5-2.5s1.122-2.5 2.5-2.5S27 21.622 27 23s-1.122 2.5-2.5 2.5zm0-4c-.827 0-1.5.673-1.5 1.5s.673 1.5 1.5 1.5S26 23.827 26 23s-.673-1.5-1.5-1.5zm0 15.5c-1.378 0-2.5-1.122-2.5-2.5s1.122-2.5 2.5-2.5 2.5 1.122 2.5 2.5-1.122 2.5-2.5 2.5zm0-4c-.827 0-1.5.673-1.5 1.5s.673 1.5 1.5 1.5 1.5-.673 1.5-1.5-.673-1.5-1.5-1.5zm14-6c-1.378 0-2.5-1.122-2.5-2.5s1.122-2.5 2.5-2.5 2.5 1.122 2.5 2.5-1.122 2.5-2.5 2.5zm0-4c-.827 0-1.5.673-1.5 1.5s.673 1.5 1.5 1.5 1.5-.673 1.5-1.5-.673-1.5-1.5-1.5zM40 37c-1.654 0-3-1.346-3-3s1.346-3 3-3 3 1.346 3 3-1.346 3-3 3zm0-5c-1.103 0-2 .897-2 2s.897 2 2 2 2-.897 2-2-.897-2-2-2zm-8 0c-1.654 0-3-1.346-3-3s1.346-3 3-3 3 1.346 3 3-1.346 3-3 3zm0-5c-1.103 0-2 .897-2 2s.897 2 2 2 2-.897 2-2-.897-2-2-2zm-7.687-14.799a2.982 2.982 0 0 1-2.867-2.122 3.003 3.003 0 0 1 2.868-3.878c1.327 0 2.479.853 2.867 2.122a2.976 2.976 0 0 1-.219 2.285 2.977 2.977 0 0 1-1.771 1.461 2.976 2.976 0 0 1-.878.132zm.001-5a2.001 2.001 0 0 0-1.912 2.585 2.019 2.019 0 0 0 2.497 1.327c.511-.156.93-.502 1.181-.974s.302-1.013.146-1.523a1.99 1.99 0 0 0-1.912-1.415z" class="color37474F svgShape"></path><path fill="#37474f" d="m25.378 10.966 2.4 7.779-.956.295-2.4-7.78zM34.185 59.248a2.503 2.503 0 0 1-2.414-1.854 2.504 2.504 0 0 1 1.768-3.062c1.31-.354 2.713.465 3.062 1.768a2.504 2.504 0 0 1-2.416 3.148zm.002-4.001a1.502 1.502 0 0 0-1.451 1.889 1.52 1.52 0 0 0 1.837 1.061 1.501 1.501 0 0 0-.386-2.95z" class="color37474F svgShape"></path><path fill="#37474f" d="m33.498 46.334.667 8.44-.997.08-.667-8.441zM38.525 10.152a2.504 2.504 0 0 1-2.416-3.148c.348-1.302 1.751-2.118 3.062-1.768a2.502 2.502 0 0 1 1.768 3.062 2.503 2.503 0 0 1-2.414 1.854zm-.002-4.001c-.677 0-1.272.457-1.448 1.112A1.502 1.502 0 0 0 38.136 9.1a1.521 1.521 0 0 0 1.837-1.061 1.502 1.502 0 0 0-1.45-1.888z" class="color37474F svgShape"></path><path fill="#37474f" d="m37.524 9.454.966.259-2.642 9.859-.966-.259zM22.805 56.898a2.504 2.504 0 0 1-2.301-3.477c.525-1.235 2.038-1.851 3.278-1.325a2.483 2.483 0 0 1 1.341 1.365c.25.619.244 1.298-.017 1.913a2.493 2.493 0 0 1-2.301 1.524zm.002-4.001c-.604 0-1.146.359-1.381.915a1.503 1.503 0 0 0 .795 1.967 1.525 1.525 0 0 0 1.966-.795c.157-.369.16-.776.01-1.148a1.485 1.485 0 0 0-.805-.818 1.48 1.48 0 0 0-.585-.121z" class="color37474F svgShape"></path><path fill="#37474f" d="m27.112 42.965.921.39-3.986 9.397-.92-.39zM46.418 14.924c-.668 0-1.296-.26-1.768-.732s-.732-1.1-.732-1.768.26-1.296.732-1.768c.943-.944 2.592-.944 3.535 0 .472.472.732 1.1.732 1.768s-.26 1.296-.732 1.768a2.48 2.48 0 0 1-1.767.732zm0-4c-.401 0-.777.156-1.061.439s-.439.66-.439 1.061.156.777.439 1.061c.566.566 1.555.566 2.121 0 .283-.283.439-.66.439-1.061s-.156-.777-.439-1.061-.659-.439-1.06-.439z" class="color37474F svgShape"></path><path fill="#37474f" d="m44.604 13.54.8.601-3.211 4.263-.8-.601zM12.385 52.302a2.98 2.98 0 0 1-2.121-.879 3.005 3.005 0 0 1 0-4.243c1.133-1.133 3.109-1.133 4.243 0a3.005 3.005 0 0 1 0 4.243 2.984 2.984 0 0 1-2.122.879zm0-5c-.534 0-1.037.208-1.414.585-.78.78-.78 2.049 0 2.829.755.756 2.073.756 2.829 0 .78-.78.78-2.049 0-2.829a1.994 1.994 0 0 0-1.415-.585z" class="color37474F svgShape"></path><path fill="#37474f" d="m19.134 43.105.614.789-5.641 4.391-.614-.789zM55.347 24.5a3.004 3.004 0 0 1-2.896-2.224A2.98 2.98 0 0 1 52.75 20a2.977 2.977 0 0 1 1.821-1.397c1.574-.422 3.255.559 3.673 2.121A2.98 2.98 0 0 1 57.945 23a2.975 2.975 0 0 1-1.821 1.397 3.004 3.004 0 0 1-.777.103zm.003-5a1.99 1.99 0 0 0-.519.069 1.986 1.986 0 0 0-1.214.931 1.99 1.99 0 0 0-.2 1.518c.279 1.041 1.396 1.695 2.449 1.414a1.986 1.986 0 0 0 1.214-.931 2.003 2.003 0 0 0-1.73-3.001z" class="color37474F svgShape"></path>
<path fill="#1cd9c4" d="m53.215 21.561.406.914-10.445 4.642-.406-.914zM7.651 41.024a2.503 2.503 0 0 1-2.414-1.854 2.504 2.504 0 0 1 1.768-3.062c1.314-.351 2.713.466 3.062 1.768a2.503 2.503 0 0 1-2.416 3.148zm.002-4a1.502 1.502 0 0 0-1.45 1.888 1.52 1.52 0 0 0 1.837 1.061 1.502 1.502 0 0 0 1.061-1.837 1.502 1.502 0 0 0-1.448-1.112z" class="color37474F svgShape"></path>
<path fill="#1cd9c4" d="m19.314 34.881.26.966-9.86 2.642-.259-.966zM55.849 42.524a2.503 2.503 0 0 1-2.416-3.147c.348-1.302 1.747-2.118 3.062-1.768.645.173 1.184.586 1.518 1.165s.422 1.252.25 1.897a2.503 2.503 0 0 1-2.414 1.853zm-.002-4c-.677 0-1.272.457-1.448 1.112a1.502 1.502 0 0 0 1.061 1.837 1.517 1.517 0 0 0 1.837-1.061 1.485 1.485 0 0 0-.15-1.138 1.488 1.488 0 0 0-1.3-.75z" class="color37474F svgShape"></path><path fill="#37474f" d="m48.547 37.518 5.501 1.507-.264.964-5.501-1.506zM9.897 31.5a2.503 2.503 0 0 1-2.416-3.147c.348-1.302 1.751-2.119 3.062-1.768a2.502 2.502 0 0 1 1.768 3.062A2.503 2.503 0 0 1 9.897 31.5zm-.002-4c-.677 0-1.272.457-1.448 1.112a1.502 1.502 0 0 0 1.061 1.837 1.522 1.522 0 0 0 1.837-1.061 1.502 1.502 0 0 0-1.45-1.888z" class="color37474F svgShape"></path><path fill="#37474f" d="m11.9 29.023 3.31.483-.145.99-3.31-.483zM7.897 22.5a2.503 2.503 0 0 1-2.416-3.147c.349-1.302 1.75-2.12 3.062-1.768a2.502 2.502 0 0 1 1.768 3.062A2.503 2.503 0 0 1 7.897 22.5zm-.002-4c-.677 0-1.272.457-1.448 1.112a1.502 1.502 0 0 0 1.061 1.837 1.521 1.521 0 0 0 1.837-1.061 1.502 1.502 0 0 0-1.45-1.888z" class="color37474F svgShape"></path><path fill="#37474f" d="m10.04 20.064 9.615 4.482-.423.907-9.615-4.483zM51.392 50.802a2.5 2.5 0 0 1-1.891-4.134c.868-1.002 2.522-1.126 3.526-.257a2.498 2.498 0 0 1-1.635 4.391zm.002-4c-.437 0-.851.189-1.136.52a1.49 1.49 0 0 0-.361 1.09c.029.399.212.764.515 1.026.603.521 1.596.448 2.116-.154a1.502 1.502 0 0 0-1.134-2.482z" class="color37474F svgShape"></path><path fill="#37474f" d="m42.817 40.612 7.38 5.994-.631.776-7.38-5.994zM15.178 15.698c-.668 0-1.296-.26-1.768-.732s-.732-1.1-.732-1.768.26-1.296.732-1.768c.943-.944 2.592-.944 3.535 0 .472.472.732 1.1.732 1.768 0 .667-.26 1.295-.732 1.768a2.48 2.48 0 0 1-1.767.732zm0-4c-.401 0-.777.156-1.061.439s-.439.66-.439 1.061.156.777.439 1.061c.566.566 1.555.566 2.121 0a1.49 1.49 0 0 0 .439-1.061c0-.401-.156-.777-.439-1.061s-.659-.439-1.06-.439z" class="color37474F svgShape"></path><path fill="#37474f" d="m16.961 14.275 4.189 4.607-.74.673-4.189-4.607zM42 21h1v1h-1zM29 35h1v1h-1zM24 43h1v1h-1zM21 40h1v1h-1zM24 39h1v1h-1zM38 43h1v1h-1zM39 40h1v1h-1zM46 34h1v1h-1zM45 30h1v1h-1zM29 23h1v1h-1zM32 21h1v1h-1zM31 19h1v1h-1zM33 34h1v1h-1zM18 30h1v1h-1zM21 27h1v1h-1z" class="color37474F svgShape"></path><g fill="#37474f" class="color37474F svgShape"><path d="M42.999 55.123a2.503 2.503 0 0 1-2.414-1.854 2.504 2.504 0 0 1 1.768-3.062c1.31-.353 2.713.465 3.062 1.768a2.504 2.504 0 0 1-2.416 3.148zm.002-4.001a1.502 1.502 0 0 0-1.451 1.889 1.521 1.521 0 0 0 1.837 1.061 1.5 1.5 0 0 0-.386-2.95z" fill="#000000" class="color000 svgShape"></path><path d="m40.427 47.31 2 3.332-.857.515-2-3.333z" fill="#000000" class="color000 svgShape"></path></g><g fill="#37474f" class="color37474F svgShape"><path d="M54.111 33.7a2.498 2.498 0 0 1-1.853-4.176 2.48 2.48 0 0 1 1.728-.821l.129-.003a2.498 2.498 0 0 1 2.495 2.373 2.487 2.487 0 0 1-.641 1.803 2.484 2.484 0 0 1-1.729.821l-.129.003zm.004-4c-.479.022-.847.197-1.115.495s-.405.681-.385 1.082a1.498 1.498 0 0 0 1.496 1.423l.078-.002c.4-.02.769-.195 1.037-.493s.405-.681.384-1.081a1.497 1.497 0 0 0-1.495-1.424z" fill="#000000" class="color000 svgShape">
</path>
<path d="m49.39 30.709 2.74.095-.034.999-2.741-.095z" fill="#fff" ></path>
</g>
</svg>
</g></svg>