<?xml version="1.0" encoding="utf-8"?>
<!-- Generator: Adobe Illustrator 26.0.3, SVG Export Plug-In . SVG Version: 6.00 Build 0)  -->
<svg version="1.1" id="Ebene_1" xmlns="http://www.w3.org/2000/svg" xmlns:xlink="http://www.w3.org/1999/xlink" x="0px" y="0px"
	 viewBox="0 0 30 30" style="enable-background:new 0 0 30 30;" xml:space="preserve">
<style type="text/css">
	.st0{fill:#ffffff;}
	.st1{fill:none;stroke:#ffffff;stroke-width:1.75;stroke-miterlimit:10;}
</style>
<g>
	<path class="st0" d="M15,1.75c7.31,0,13.25,5.94,13.25,13.25S22.31,28.25,15,28.25S1.75,22.31,1.75,15S7.69,1.75,15,1.75 M15,0
		C6.72,0,0,6.72,0,15s6.72,15,15,15s15-6.72,15-15S23.28,0,15,0L15,0z"/>
</g>
<g>
	<g>
		<line class="st1" x1="2" y1="10.25" x2="28" y2="10.25"/>
	</g>
	<g>
		<line class="st1" x1="2" y1="19.25" x2="28" y2="19.25"/>
	</g>
</g>
<path class="st1" d="M15,0.94C14.27,1.5,8.03,6.42,8,15c-0.03,8.64,6.29,13.62,7,14.16"/>
<path class="st1" d="M14.65,0.69c0.73,0.55,6.97,5.48,7,14.06c0.03,8.64-6.29,13.62-7,14.16"/>
</svg>
