<?xml version="1.0" encoding="utf-8"?>
<!-- Generator: Adobe Illustrator 26.0.3, SVG Export Plug-In . SVG Version: 6.00 Build 0)  -->
<svg version="1.1" id="Ebene_1" xmlns="http://www.w3.org/2000/svg" xmlns:xlink="http://www.w3.org/1999/xlink" x="0px" y="0px"
	 viewBox="0 0 30 30" style="enable-background:new 0 0 30 30;" xml:space="preserve">
<style type="text/css">
	.st0{fill:#FFFFFF;}
</style>
<g>
	<path class="st0" d="M9.8,1.75c0.84,0,1.52,0.68,1.52,1.52V9.8c0,0.84-0.68,1.52-1.52,1.52H3.27c-0.84,0-1.52-0.68-1.52-1.52V3.27
		c0-0.84,0.68-1.52,1.52-1.52H9.8 M9.8,0H3.27C1.47,0,0,1.47,0,3.27V9.8c0,1.8,1.47,3.27,3.27,3.27H9.8c1.8,0,3.27-1.47,3.27-3.27
		V3.27C13.07,1.47,11.59,0,9.8,0L9.8,0z"/>
</g>
<g>
	<path class="st0" d="M26.73,1.75c0.84,0,1.52,0.68,1.52,1.52V9.8c0,0.84-0.68,1.52-1.52,1.52H20.2c-0.84,0-1.52-0.68-1.52-1.52
		V3.27c0-0.84,0.68-1.52,1.52-1.52H26.73 M26.73,0H20.2c-1.8,0-3.27,1.47-3.27,3.27V9.8c0,1.8,1.47,3.27,3.27,3.27h6.52
		c1.8,0,3.27-1.47,3.27-3.27V3.27C30,1.47,28.53,0,26.73,0L26.73,0z"/>
</g>
<g>
	<path class="st0" d="M9.8,18.68c0.84,0,1.52,0.68,1.52,1.52v6.52c0,0.84-0.68,1.52-1.52,1.52H3.27c-0.84,0-1.52-0.68-1.52-1.52
		V20.2c0-0.84,0.68-1.52,1.52-1.52H9.8 M9.8,16.93H3.27C1.47,16.93,0,18.41,0,20.2v6.52C0,28.53,1.47,30,3.27,30H9.8
		c1.8,0,3.27-1.47,3.27-3.27V20.2C13.07,18.41,11.59,16.93,9.8,16.93L9.8,16.93z"/>
</g>
<g>
	<path class="st0" d="M26.73,18.68c0.84,0,1.52,0.68,1.52,1.52v6.52c0,0.84-0.68,1.52-1.52,1.52H20.2c-0.84,0-1.52-0.68-1.52-1.52
		V20.2c0-0.84,0.68-1.52,1.52-1.52H26.73 M26.73,16.93H20.2c-1.8,0-3.27,1.47-3.27,3.27v6.52c0,1.8,1.47,3.27,3.27,3.27h6.52
		c1.8,0,3.27-1.47,3.27-3.27V20.2C30,18.41,28.53,16.93,26.73,16.93L26.73,16.93z"/>
</g>
</svg>
